HIERARCHY
ROOT Hips
{
	OFFSET 0.00000 0.00000 0.00000
	CHANNELS 6 Xposition Yposition Zposition Zrotation Yrotation Xrotation 
	JOINT LHipJoint
	{
		OFFSET 0 0 0
		CHANNELS 3 Zrotation Yrotation Xrotation
		JOINT LeftHip
		{
			OFFSET 1.55766 -1.60504 1.11378
			CHANNELS 3 Zrotation Yrotation Xrotation
			JOINT LeftKnee
			{
				OFFSET 2.29047 -6.29302 0.00000
				CHANNELS 3 Zrotation Yrotation Xrotation
				JOINT LeftAnkle
				{
					OFFSET 2.52265 -6.93093 0.00000
					CHANNELS 3 Zrotation Yrotation Xrotation
					JOINT LeftToe
					{
						OFFSET 0.17633 -0.48446 2.02656
						CHANNELS 3 Zrotation Yrotation Xrotation
						End Site
						{
							OFFSET 0.00000 -0.00000 1.04989
						}
					}
				}
			}
		}
	}
	JOINT RHipJoint
	{
		OFFSET 0 0 0
		CHANNELS 3 Zrotation Yrotation Xrotation
		JOINT RightHip
		{
			OFFSET -1.48599 -1.60504 1.11378
			CHANNELS 3 Zrotation Yrotation Xrotation
			JOINT RightKnee
			{
				OFFSET -2.27280 -6.24448 0.00000
				CHANNELS 3 Zrotation Yrotation Xrotation
				JOINT RightAnkle
				{
					OFFSET -2.50834 -6.89161 0.00000
					CHANNELS 3 Zrotation Yrotation Xrotation
					JOINT RightToe
					{
						OFFSET -0.26967 -0.74090 2.08741
						CHANNELS 3 Zrotation Yrotation Xrotation
						End Site
						{
							OFFSET -0.00000 -0.00000 1.10614
						}
					}
				}
			}
		}
	}
	JOINT lowerback
	{
		OFFSET 0 0 0
		CHANNELS 3 Zrotation Yrotation Xrotation
		JOINT Chest
		{
			OFFSET 0.06481 2.02437 -0.08472
			CHANNELS 3 Zrotation Yrotation Xrotation
			JOINT Chest2
			{
				OFFSET 0.00015 1.96711 0.18069
				CHANNELS 3 Zrotation Yrotation Xrotation
				JOINT lowerneck
				{
					OFFSET 0 0 0
					CHANNELS 3 Zrotation Yrotation Xrotation
					JOINT Neck
					{
						OFFSET -0.29961 1.68293 -0.13041
						CHANNELS 3 Zrotation Yrotation Xrotation
						JOINT Head
						{
							OFFSET 0.59697 1.61501 -0.14669
							CHANNELS 3 Zrotation Yrotation Xrotation
							End Site
							{
								OFFSET 0.22973 1.74906 -0.10148
							}
						}
					}
				}
				JOINT LeftCollar
				{
					OFFSET 0 0 0
					CHANNELS 3 Zrotation Yrotation Xrotation
					JOINT LeftShoulder
					{
						OFFSET 3.37968 1.02893 0.31147
CHANNELS 3 Zrotation Xrotation Yrotation
						JOINT LeftElbow
						{
OFFSET 0 -5.198070 -0.000000
CHANNELS 3 Zrotation Xrotation Yrotation
							JOINT LeftWrist
							{
OFFSET 0 -3.093700 -0.000000
CHANNELS 3 Zrotation Xrotation Yrotation
								JOINT lhand
								{
									OFFSET 0 0 0
CHANNELS 3 Zrotation Xrotation Yrotation
									JOINT LFingers
									{
OFFSET 0 -0.672630 -0.000000
CHANNELS 3 Zrotation Xrotation Yrotation
										End Site
										{
OFFSET 0 -0.542290 -0.000000
										}
									}
								}
								JOINT LThumb
								{
OFFSET 0 0.000000 0.000000
CHANNELS 3 Zrotation Xrotation Yrotation
									End Site
									{
OFFSET 0 -0.550570 0.550570
									}
								}
							}
						}
					}
				}
				JOINT RightCollar
				{
					OFFSET 0 0 0
					CHANNELS 3 Zrotation Yrotation Xrotation
					JOINT RightShoulder
					{
						OFFSET -3.38254 0.96355 -0.16120
CHANNELS 3 Zrotation Xrotation Yrotation
						JOINT RightElbow
						{
OFFSET 0 -5.452220 -0.000000
CHANNELS 3 Zrotation Xrotation Yrotation
							JOINT RightWrist
							{
OFFSET 0 -3.012840 -0.000000
CHANNELS 3 Zrotation Xrotation Yrotation
								JOINT rhand
								{
									OFFSET 0 0 0
CHANNELS 3 Zrotation Xrotation Yrotation
									JOINT RFingers
									{
OFFSET 0 -0.622300 -0.000000
CHANNELS 3 Zrotation Xrotation Yrotation
										End Site
										{
OFFSET 0 -0.501710 -0.000000
										}
									}
								}
								JOINT RThumb
								{
OFFSET 0 0.000000 0.000000
CHANNELS 3 Zrotation Xrotation Yrotation
									End Site
									{
OFFSET 0 -0.509370 0.509370
									}
								}
							}
						}
					}
				}
			}
		}
	}
}
MOTION
Frames: 9
Frame Time: 0.008333333333333333
-0.038989 15.019079 33.662439 -363.540230 -242.654129 -345.920938 0.000000 0.000000 0.000000 -5.751996 -7.395385 -25.963803 3.678485 11.719446 34.747174 1.059527 -24.391021 -23.701402 3.107539 -10.866688 -31.832024 0.000000 0.000000 0.000000 -9.484968 25.543762 -23.566786 -3.855709 -11.964655 35.608665 -1.115987 0.910829 -19.696178 -1.445734 7.599393 -21.504439 0.711477 1.910766 1.386953 0.089557 3.059547 -9.033843 -0.647372 1.615035 -10.326844 -31.094499 -11.209763 19.506978 44.414963 -17.735545 -15.495647 24.058366 -11.008049 0.761807 0.000000 0.000000 0.000000 6.387258 -1.616833 -69.625417 92.380819 -59.975744 62.061669 18.850394 -39.584460 21.250611 0.000000 0.000000 0.000000 -7.125000 0.000000 0.000000 -6.216827 7.748745 -5.354308 0.000000 0.000000 0.000000 -3.332934 9.189589 75.480155 -57.117592 -55.490411 -31.954342 2.488580 2.775049 -0.681550 0.000000 0.000000 0.000000 7.125000 0.000000 0.000000 22.259545 28.889163 9.398386
-0.181371 15.132668 33.512101 -361.863963 -245.374910 -344.632841 0.000000 0.000000 0.000000 -6.448599 -5.349839 -25.110934 3.467736 11.416196 33.696927 1.095214 -23.317598 -23.383160 3.015566 -10.720216 -31.341825 0.000000 0.000000 0.000000 -7.524130 24.458447 -25.227184 -4.247850 -12.482832 37.462630 -1.008886 -0.993374 -19.363946 -1.316503 7.267373 -20.509930 1.308527 1.775639 1.626397 0.547231 2.955841 -9.088742 -0.492915 1.531331 -10.533095 -31.401634 -10.994689 19.333767 44.155282 -17.747899 -14.620516 23.896213 -10.986047 1.006893 0.000000 0.000000 0.000000 7.768324 -1.563817 -69.503497 95.483618 -59.885677 64.747110 18.966018 -40.709338 21.127111 0.000000 0.000000 0.000000 -7.125000 0.000000 0.000000 -6.134875 7.859803 -5.269419 0.000000 0.000000 0.000000 -4.224105 8.808363 77.567999 -58.446557 -55.881540 -33.051717 3.296463 5.940746 -2.515643 0.000000 0.000000 0.000000 7.125000 0.000000 0.000000 22.467901 27.164965 10.503415
-0.309038 15.240483 33.370914 -360.272958 -248.096801 -343.785371 0.000000 0.000000 0.000000 -7.298799 -3.509167 -23.610048 3.218024 11.039122 32.412889 1.216205 -21.587307 -23.309675 3.112066 -10.874054 -31.856579 0.000000 0.000000 0.000000 -4.977671 22.929289 -26.305379 -4.750193 -13.094821 39.727890 -0.970567 -2.399931 -19.624813 -1.316040 7.266122 -20.506107 1.755644 1.704183 2.148165 0.838213 2.903497 -8.985060 -0.442675 1.468424 -10.728558 -31.516599 -10.872260 19.255998 43.879492 -17.849370 -13.719055 23.653563 -11.019559 1.251001 0.000000 0.000000 0.000000 9.432168 -1.207529 -69.217351 98.565153 -59.718409 67.410463 19.084889 -42.085409 20.892052 0.000000 0.000000 0.000000 -7.125000 0.000000 0.000000 -6.042946 8.085933 -5.162456 0.000000 0.000000 0.000000 -4.846474 8.422361 78.993327 -59.240413 -56.103987 -33.709906 3.654327 8.213796 -3.159332 0.000000 0.000000 0.000000 7.125000 0.000000 0.000000 22.595581 26.559335 10.926358
-0.421815 15.336238 33.238442 -359.438119 -250.879823 -343.830863 0.000000 0.000000 0.000000 -8.474275 -1.907417 -21.750564 2.957872 10.625604 31.028280 1.344641 -19.424676 -23.219698 3.284481 -11.141663 -32.759536 0.000000 0.000000 0.000000 -2.420834 21.209484 -27.031790 -5.380741 -13.796773 42.436159 -0.965133 -3.264903 -20.008774 -1.335169 7.316493 -20.656572 1.840505 1.648806 2.728057 0.956314 2.822542 -8.795889 -0.370719 1.410291 -10.869026 -31.573964 -10.770134 19.257629 43.578171 -17.994976 -12.732709 23.382169 -11.079716 1.508071 0.000000 0.000000 0.000000 11.272222 -0.560841 -68.717067 101.502536 -59.491339 69.944336 19.015083 -43.515025 20.587360 0.000000 0.000000 0.000000 -7.125000 0.000000 0.000000 -6.067156 8.410683 -5.144114 0.000000 0.000000 0.000000 -5.293971 8.090573 79.958653 -59.597195 -56.201621 -34.006174 3.573714 9.446931 -3.008191 0.000000 0.000000 0.000000 7.125000 0.000000 0.000000 22.567962 26.701347 10.828287
-0.521258 15.414497 33.111782 -359.874254 -253.665778 -345.171835 0.000000 0.000000 0.000000 -9.997518 -0.496668 -19.827711 2.720676 10.228259 29.719214 1.397657 -17.359892 -22.839415 3.358871 -11.254466 -33.143040 0.000000 0.000000 0.000000 -0.113191 19.334229 -27.513424 -6.132271 -14.553959 45.507857 -0.994340 -3.469595 -20.390810 -1.390815 7.461103 -21.088919 1.553963 1.552678 3.231110 0.931779 2.634851 -8.563716 -0.225934 1.324858 -10.922756 -31.684437 -10.640492 19.287793 43.240679 -18.149531 -11.627550 23.113998 -11.141478 1.794519 0.000000 0.000000 0.000000 13.216233 0.392007 -67.994629 104.262787 -59.216352 72.319352 18.837091 -44.923322 20.253378 0.000000 0.000000 0.000000 -7.125000 0.000000 0.000000 -6.159480 8.780121 -5.177922 0.000000 0.000000 0.000000 -5.666815 7.839061 80.609844 -59.584308 -56.198189 -33.995458 2.953834 9.778466 -2.398875 0.000000 0.000000 0.000000 7.125000 0.000000 0.000000 22.245831 27.282945 10.315656
-0.610858 15.473364 32.983968 -361.999087 -256.291287 -348.022135 0.000000 0.000000 0.000000 -11.760800 0.543403 -18.245953 2.550013 9.928032 28.744343 1.402569 -15.440137 -22.313990 3.367823 -11.267868 -33.188773 0.000000 0.000000 0.000000 1.833014 17.247179 -27.945600 -6.973633 -15.307046 48.770049 -1.057085 -2.826646 -20.633165 -1.494190 7.721332 -21.870947 1.100489 1.389960 3.412826 0.766727 2.326000 -8.349415 -0.110926 1.192230 -10.800699 -31.820653 -10.492854 19.356719 42.868024 -18.301284 -10.473776 22.849551 -11.201239 2.082769 0.000000 0.000000 0.000000 15.156818 1.627398 -67.106289 106.731738 -58.913931 74.437127 18.632587 -46.181419 19.923521 0.000000 0.000000 0.000000 -7.125000 0.000000 0.000000 -6.270720 9.148339 -5.226115 0.000000 0.000000 0.000000 -5.974092 7.685561 80.883716 -59.253122 -56.107580 -33.720389 1.744184 9.487923 -1.623027 0.000000 0.000000 0.000000 7.125000 0.000000 0.000000 21.526089 28.038156 9.515005
-0.694839 15.515992 32.850078 -365.669930 -258.714803 -352.050184 0.000000 0.000000 0.000000 -13.556836 1.251507 -17.391619 2.475445 9.793078 28.309275 1.407560 -13.560373 -21.899694 3.435473 -11.368527 -33.533159 0.000000 0.000000 0.000000 3.524334 15.008560 -28.561766 -7.842113 -15.998611 51.986665 -1.127384 -1.408159 -20.622934 -1.647768 8.089107 -22.985700 0.733769 1.192819 3.077759 0.525350 1.979545 -8.213089 -0.107892 1.037736 -10.446992 -31.875115 -10.358396 19.473462 42.626042 -18.413427 -9.423671 22.368654 -11.248220 2.318288 0.000000 0.000000 0.000000 16.909727 3.051690 -66.113571 108.745029 -58.628528 76.158805 18.449971 -47.170255 19.647113 0.000000 0.000000 0.000000 -7.125000 0.000000 0.000000 -6.372266 9.457715 -5.272101 0.000000 0.000000 0.000000 -6.261207 7.624540 80.745634 -58.756155 -55.969106 -33.308219 0.283192 8.863700 -0.839166 0.000000 0.000000 0.000000 7.125000 0.000000 0.000000 20.609781 28.811904 8.648545
-0.774548 15.544102 32.711611 -370.922466 -261.061684 -357.327412 0.000000 0.000000 0.000000 -15.257517 1.804639 -17.301018 2.508807 9.853856 28.504758 1.426930 -11.691773 -21.691907 3.591369 -11.595642 -34.316350 0.000000 0.000000 0.000000 5.127520 12.791812 -29.320764 -8.690243 -16.602790 55.010442 -1.174045 0.611004 -20.302329 -1.839602 8.522871 -24.314288 0.556549 1.038920 2.297137 0.239046 1.716892 -8.151284 -0.261198 0.912351 -9.903133 -31.886992 -10.231299 19.687118 42.396963 -18.517436 -8.488807 21.884103 -11.299349 2.500829 0.000000 0.000000 0.000000 18.461599 4.573997 -65.125404 110.311885 -58.381864 77.494985 18.289549 -47.864634 19.431887 0.000000 0.000000 0.000000 -7.125000 0.000000 0.000000 -6.463786 9.700498 -5.317131 0.000000 0.000000 0.000000 -6.508648 7.662270 80.173739 -58.257205 -55.827309 -32.895003 -1.165957 7.941438 0.009288 0.000000 0.000000 0.000000 7.125000 0.000000 0.000000 19.697934 29.651113 7.797807
-0.850835 15.556324 32.574649 -378.948252 -263.489681 -365.217307 0.000000 0.000000 0.000000 -16.746301 2.511195 -17.874564 2.659882 10.122557 29.374961 1.446841 -10.082518 -21.636804 3.755808 -11.828078 -35.126636 0.000000 0.000000 0.000000 6.824073 10.795769 -29.994068 -9.478217 -17.104741 57.728198 -1.161834 2.983324 -19.609171 -2.065620 9.000704 -25.798021 0.527185 0.985613 1.313026 -0.011966 1.614524 -8.127827 -0.475141 0.858504 -9.282428 -32.050726 -10.065136 20.005506 42.018558 -18.640895 -7.608980 21.707913 -11.367880 2.670078 0.000000 0.000000 0.000000 19.779236 6.189541 -64.170250 111.464497 -58.185280 78.475488 18.215608 -48.283736 19.309246 0.000000 0.000000 0.000000 -7.125000 0.000000 0.000000 -6.505012 9.836378 -5.333478 0.000000 0.000000 0.000000 -6.772311 7.794340 79.259923 -57.917558 -55.728965 -32.614227 -2.669485 6.668191 1.160522 0.000000 0.000000 0.000000 7.125000 0.000000 0.000000 18.785064 30.786312 6.856542
